<?xml version="1.0" encoding="utf-8"?>
<!-- Generator: Adobe Illustrator 24.0.3, SVG Export Plug-In . SVG Version: 6.00 Build 0)  -->
<svg version="1.1" id="Layer_1" xmlns="http://www.w3.org/2000/svg" xmlns:xlink="http://www.w3.org/1999/xlink" x="0px" y="0px"
	 viewBox="0 0 96 96" style="enable-background:new 0 0 96 96;" xml:space="preserve">
<style type="text/css">
	.st0{fill:#721555;stroke:#FFFFFF;stroke-width:4;stroke-miterlimit:10;}
	.st1{fill:#FFFFFF;}
</style>
<path class="st0" d="M90.4,56.7c5.1-13.6,5.9-35.4-13.7-43.1C57.1,5.8,13.3,9.2,2.9,38.1C-6.6,64.6,64.8,125,90.4,56.7z"/>
<path class="st1" d="M57.7,48.7l8.9-8.9c2-2,2-5.2,0-7.2l-1.3-1.3c-2-2-5.2-2-7.2,0l-8.9,8.9l-8.9-8.9c-2-2-5.2-2-7.2,0l-1.3,1.3
	c-2,2-2,5.2,0,7.2l8.9,8.9l-8.9,8.9c-2,2-2,5.2,0,7.2l1.3,1.3c1,1,2.3,1.5,3.6,1.5c1.3,0,2.6-0.5,3.6-1.5l8.9-8.9l8.9,8.9
	c1,1,2.3,1.5,3.6,1.5c1.3,0,2.6-0.5,3.6-1.5l1.3-1.3c2-2,2-5.2,0-7.2L57.7,48.7z"/>
</svg>
