<?xml version="1.0" encoding="utf-8"?>
<!-- Generator: Adobe Illustrator 24.0.3, SVG Export Plug-In . SVG Version: 6.00 Build 0)  -->
<svg version="1.1" id="Layer_1" xmlns="http://www.w3.org/2000/svg" xmlns:xlink="http://www.w3.org/1999/xlink" x="0px" y="0px"
	 viewBox="0 0 82 82" style="enable-background:new 0 0 82 82;" xml:space="preserve">
<style type="text/css">
	.st0{fill:#5CC066;}
	.st1{fill:#FFFFFF;}
</style>
<g>
	<path class="st0" d="M76.9,50.6c4.3-11.4,4.9-29.6-11.4-36C49.1,8.1,12.5,10.9,3.9,35.1C-4.1,57.3,55.6,107.7,76.9,50.6z"/>
	<path class="st1" d="M46.3,78.5c-5.2,0-9.8-1.2-12.9-2.4C13.7,68.9-2.3,47.5,2.3,34.6c3-8.4,9.7-15.2,19.1-19.5
		C36.6,8.3,55.7,8.9,66.1,13c7.8,3.1,12.8,9.1,14.5,17.4c1.3,6.3,0.5,13.9-2.1,20.7v0C70.2,73.3,57,78.5,46.3,78.5z M47.1,13.2
		c-7.9,0-16.6,1.4-24.3,4.9C14,22.1,8.2,28,5.4,35.7C1.4,46.9,16.7,66.5,34.6,73c10.6,3.9,29.9,6,40.8-23
		c3.6-9.6,5.4-27.6-10.5-33.9C60.4,14.3,54,13.2,47.1,13.2z"/>
</g>
<g>
	<path class="st1" d="M27.3,33.8l0.8-1.4l1-1.7c0.1-0.3,0.5-0.9,1-1.8c0.6-0.9,1-1.6,1.3-2l1.5-1.7c0.6-0.8,1.2-1.4,1.7-1.9
		c0.5-0.5,1.1-1,1.8-1.5c0.7-0.5,1.4-1,2.2-1.4c3.1-1.6,6.3-2.4,9.7-2.4c3.4,0,6.3,0.9,8.9,2.7c2.7,1.9,4.4,4.5,5.2,7.8
		c0.8,3.3,0.7,6.8-0.5,10.5c-1.2,3.8-3.4,6.9-6.7,9.5l-3.5,2.6c-1.3,0.9-2.2,1.6-3,2.3c-0.2,0.2-0.4,0.5-0.6,0.7l-0.7,1.1
		c-0.3,0.5-0.7,1-1.2,1.7c-0.8,1.1-1.8,1.8-3.1,2c-1.3,0.2-2.5-0.1-3.6-0.9c-1.1-0.8-1.7-1.8-1.9-3.1c-0.2-1.3,0.1-2.5,0.9-3.5
		c0,0,0.2-0.3,0.5-0.7l0.8-1.4c0.3-0.4,0.6-0.9,1.1-1.5c0.4-0.6,0.9-1,1.3-1.4c0.9-0.9,2.2-2,4-3.2c1.9-1.3,2.9-2.1,3.2-2.3
		c1.7-1.3,2.8-2.9,3.4-4.7c1.2-3.8,0.8-6.3-1.2-7.7c-0.5-0.4-1.1-0.6-1.9-0.8c-0.8-0.2-1.7-0.2-3,0c-1.2,0.2-2.5,0.6-3.8,1.3
		c-0.9,0.4-1.8,1.1-2.6,2.2c-0.9,1-1.6,2-2.1,2.8c-0.5,0.9-1.4,2.3-2.5,4.4c-0.6,1.1-1.6,1.9-2.9,2.2c-1.3,0.4-2.5,0.2-3.6-0.4
		c-1.1-0.6-1.9-1.6-2.3-2.8C26.5,36.2,26.7,35,27.3,33.8z M45.5,62.8c0.9,0.9,1.4,2.1,1.4,3.4c0,1.3-0.5,2.5-1.4,3.4
		c-0.9,0.9-2.1,1.4-3.4,1.4c-1.3,0-2.5-0.5-3.4-1.4c-0.9-0.9-1.4-2.1-1.4-3.4c0-1.3,0.5-2.5,1.4-3.4c0.9-0.9,2.1-1.4,3.4-1.4
		C43.4,61.4,44.5,61.9,45.5,62.8z"/>
</g>
</svg>
