<?xml version="1.0" encoding="utf-8"?>
<!-- Generator: Adobe Illustrator 24.0.3, SVG Export Plug-In . SVG Version: 6.00 Build 0)  -->
<svg version="1.1" id="Layer_1" xmlns="http://www.w3.org/2000/svg" xmlns:xlink="http://www.w3.org/1999/xlink" x="0px" y="0px"
	 viewBox="0 0 97 97" style="enable-background:new 0 0 97 97;" xml:space="preserve">
<style type="text/css">
	.st0{fill:#D94444;stroke:#FFFFFF;stroke-width:4;stroke-miterlimit:10;}
	.st1{fill:#FFFFFF;}
</style>
<path class="st0" d="M92,57.4c5.2-13.8,6-36-13.9-43.9c-19.9-7.9-64.5-4.4-75,25C-6.6,65.5,66,126.9,92,57.4z"/>
<g>
	<path class="st1" d="M75.5,41.1L55,18.6c-2.1-2.3-5.7-2.2-7.7,0.1c0,0-19.8,23.1-19.8,23.1c-3.3,3.9,0.4,9.3,5.3,8.5L32.9,64
		c0.1,4.3-0.9,11.6,5.5,11.6c9.9,0.7,7.3-3.7,7.5-11c-0.7-6.3,2.8-6.3,7.8-6.1c3.3-0.1,4.2,3.3,3.9,6c0.4,3.1-1.4,10.9,3.8,10.8
		c9.9,0.6,9.5-3.3,9.2-11.6l-0.2-13.8l1.3,0C76.2,49.7,78.5,44.4,75.5,41.1z"/>
</g>
</svg>
