<?xml version="1.0" encoding="utf-8"?>
<!-- Generator: Adobe Illustrator 24.0.3, SVG Export Plug-In . SVG Version: 6.00 Build 0)  -->
<svg version="1.1" id="Layer_1" xmlns="http://www.w3.org/2000/svg" xmlns:xlink="http://www.w3.org/1999/xlink" x="0px" y="0px"
	 viewBox="0 0 97 97" style="enable-background:new 0 0 97 97;" xml:space="preserve">
<style type="text/css">
	.st0{fill:#1D72D8;}
	.st1{fill:#FFFFFF;}
</style>
<g>
	<path class="st0" d="M89.7,58c5-13.4,5.8-34.9-13.5-42.6C56.8,7.7,13.6,11.1,3.3,39.7C-6.1,65.9,64.4,125.5,89.7,58z"/>
	<path class="st1" d="M53.5,91c-6.1,0-11.5-1.5-15.2-2.8C14.9,79.6-4,54.3,1.5,39c3.6-10,11.4-17.9,22.6-23
		C42,7.9,64.6,8.7,76.8,13.6c9.2,3.7,15.1,10.8,17.1,20.5c1.5,7.4,0.6,16.4-2.5,24.5v0C81.7,84.8,66.1,91,53.5,91z M54.4,13.8
		c-9.4,0-19.7,1.7-28.7,5.8C15.3,24.3,8.4,31.3,5.1,40.4C0.4,53.6,18.4,76.7,39.6,84.5c12.5,4.6,35.4,7.1,48.2-27.2
		c4.3-11.4,6.4-32.6-12.4-40.1C70.1,15.1,62.6,13.8,54.4,13.8z"/>
</g>
<g>
	<path class="st1" d="M51.4,38.5h2.4c0.6,0,0.9,0,1,0c0.8,0,1.5,0.1,2,0.3c1,0.3,1.2,0.5,1.2,2c0.1,1.2,0.2,6.7,0.2,16.6
		c0,10-0.1,15.1-0.3,15.3c-0.5,0.5-2.3,0.7-5.6,0.7h-3.3c-2.8-0.1-4.4-0.1-5-0.2c-0.6-0.1-1.1-0.3-1.4-0.6L42,71.9l-0.1-12.1v-3.7
		c0-10.4,0.3-16,1.1-16.8c0.3-0.3,2.2-0.5,5.7-0.6C49.5,38.6,50.4,38.6,51.4,38.5z M50.1,22c4,0,7.3,3.4,7.3,6.6v1.2
		c-0.3,3.5-2.8,5.6-7.1,5.6h-0.5c-4-0.3-7-2.5-7-6.1c0-1.5,0.3-3,2.2-5C46.9,22.3,48.7,22,50.1,22z"/>
</g>
</svg>
