<?xml version="1.0" encoding="utf-8"?>
<!-- Generator: Adobe Illustrator 24.0.3, SVG Export Plug-In . SVG Version: 6.00 Build 0)  -->
<svg version="1.1" id="Layer_1" xmlns="http://www.w3.org/2000/svg" xmlns:xlink="http://www.w3.org/1999/xlink" x="0px" y="0px"
	 viewBox="0 0 97 97" style="enable-background:new 0 0 97 97;" xml:space="preserve">
<style type="text/css">
	.st0{fill:#E5E5E5;stroke:#FFFFFF;stroke-width:4;stroke-miterlimit:10;}
	.st1{filter:url(#Adobe_OpacityMaskFilter);}
	.st2{fill:#FFFFFF;}
	.st3{mask:url(#Mask_Mask_1_2_);}
	.st4{fill:#53B9C9;}
	.st5{fill:#5CC067;}
	.st6{fill:#D94444;}
	.st7{fill:#E545B0;}
</style>
<path class="st0" d="M90.3,56.5c5.1-13.6,5.9-35.4-13.7-43.1C57,5.6,13.2,9,2.8,38C-6.7,64.5,64.7,124.9,90.3,56.5z"/>
<g transform="matrix( 1, 0, 0, 1, 3.5,8.45) ">
	<defs>
		<filter id="Adobe_OpacityMaskFilter" filterUnits="userSpaceOnUse">
			<feColorMatrix  type="matrix" values="1 0 0 0 0  0 1 0 0 0  0 0 1 0 0  0 0 0 1 0"/>
		</filter>
	</defs>
	<mask maskUnits="userSpaceOnUse" id="Mask_Mask_1_2_">
		<g transform="matrix( 1, 0, 0, 1, 0,0) " class="st1">
			<g>
				<g id="Mask_Symbol_2_0_1_MASK_0_FILL_2_">
					<path class="st2" d="M78.7,36.4c0-9-3.2-16.8-9.6-23.2c-6.4-6.4-14.1-9.6-23.2-9.6c-9.1,0-16.8,3.2-23.2,9.6
						c-6.4,6.4-9.6,14.2-9.6,23.2c0,9.1,3.2,16.8,9.6,23.2c6.4,6.4,14.1,9.6,23.2,9.6c9,0,16.7-3.2,23.2-9.6
						C75.5,53.2,78.7,45.5,78.7,36.4z"/>
				</g>
			</g>
		</g>
	</mask>
	<g class="st3">
	</g>
</g>
<g transform="matrix( 0.6997528076171875, 0, 0, 0.8248748779296875, 0,0) ">
	<g transform="matrix( 1, 0, 0, 1, -989,-278.05) ">
		<g>
			<g id="Symbol_1_0_Layer0_0_FILL">
				<path class="st4" d="M1041.5,323.8h-17v38.8h17V323.8z"/>
			</g>
		</g>
	</g>
	<g transform="matrix( 1, 0, 0, 1.4993743896484375, -952.7,-446.8) ">
		<g>
			<g id="Symbol_1_0_Layer0_1_FILL">
				<path class="st5" d="M1024.2,315.6h-17v38.8h17V315.6z"/>
			</g>
		</g>
	</g>
	<g transform="matrix( 1, 0, 0, 0.8249969482421875, -916.4,-218.85) ">
		<g>
			<g id="Symbol_1_0_Layer0_2_FILL">
				<path class="st6" d="M1007,329h-17v38.8h17V329z"/>
			</g>
		</g>
	</g>
	<g transform="matrix( 1, 0, 0, 0.9874114990234375, -880,-273.75) ">
		<g>
			<g id="Symbol_1_0_Layer0_3_FILL">
				<path class="st7" d="M989.6,324.1h-17v38.8h17V324.1z"/>
			</g>
		</g>
	</g>
</g>
</svg>
