<?xml version="1.0" encoding="UTF-8" standalone="no"?>
<svg
   width="417.20389"
   height="330.39023"
   viewBox="85 145 417.20389 330.39023"
   sodipodi:version="0.32"
   inkscape:version="1.2.1 (9c6d41e410, 2022-07-14)"
   sodipodi:docname="checkmark.svg"
   version="1.1"
   id="svg10"
   xmlns:inkscape="http://www.inkscape.org/namespaces/inkscape"
   xmlns:sodipodi="http://sodipodi.sourceforge.net/DTD/sodipodi-0.dtd"
   xmlns="http://www.w3.org/2000/svg"
   xmlns:svg="http://www.w3.org/2000/svg"
   xmlns:rdf="http://www.w3.org/1999/02/22-rdf-syntax-ns#"
   xmlns:cc="http://creativecommons.org/ns#"
   xmlns:dc="http://purl.org/dc/elements/1.1/">
  <defs
     id="defs14" />
  <sodipodi:namedview
     id="namedview12"
     pagecolor="#ffffff"
     bordercolor="#000000"
     borderopacity="0.25"
     inkscape:showpageshadow="2"
     inkscape:pageopacity="0.0"
     inkscape:pagecheckerboard="0"
     inkscape:deskcolor="#d1d1d1"
     showgrid="false"
     inkscape:zoom="2.0925"
     inkscape:cx="208.3632"
     inkscape:cy="181.60096"
     inkscape:window-width="1920"
     inkscape:window-height="1017"
     inkscape:window-x="-8"
     inkscape:window-y="-8"
     inkscape:window-maximized="1"
     inkscape:current-layer="svg10" />
  <metadata
     id="metadata2">
    <rdf:RDF>
      <cc:Work
         rdf:about="">
        <dc:format>image/svg+xml</dc:format>
        <dc:type
           rdf:resource="http://purl.org/dc/dcmitype/StillImage" />
      </cc:Work>
    </rdf:RDF>
  </metadata>
  <path
     style="fill:#2ca05a;fill-opacity:1;fill-rule:evenodd;stroke:none;stroke-width:1px;stroke-linecap:butt;stroke-linejoin:miter;stroke-opacity:1"
     d="M 492.20386,208.39452 C 442.88098,174.57671 419.54468,145 419.54468,145 328.45893,198.67063 231.72666,389.24156 231.72666,389.24156 186.39363,325.42376 140.81293,307.62369 140.81293,307.62369 120.32145,335.00549 85,371.49753 85,371.49753 c 82.38309,22.18746 151.53232,103.60699 151.53232,103.60699 149.48387,-234.68693 255.67154,-266.71 255.67154,-266.71 z"
     sodipodi:nodetypes="ccccccc"
     id="path4" />
  <path
     style="opacity:0.277778;fill:#2ca05a;fill-opacity:1;fill-rule:evenodd;stroke:none;stroke-width:1px;stroke-linecap:butt;stroke-linejoin:miter;stroke-opacity:1"
     d="M 502.20388,208.68024 C 452.881,174.86243 429.5447,145.28572 429.5447,145.28572 338.45895,198.95635 241.72668,389.52728 241.72668,389.52728 c -45.33303,-63.8178 -90.91373,-81.61787 -90.91373,-81.61787 -20.49148,27.3818 -55.81293,63.87384 -55.81293,63.87384 82.38309,22.18746 151.53232,103.60699 151.53232,103.60699 149.48387,-234.68693 255.67154,-266.71 255.67154,-266.71 z"
     sodipodi:nodetypes="ccccccc"
     id="path8" />
</svg>
